<svg width="100" height="100" viewBox="0 0 100 100" fill="none" xmlns="http://www.w3.org/2000/svg">
<path fill-rule="evenodd" clip-rule="evenodd" d="M50 26.6215C62.908 26.6215 73.3716 37.0922 73.3716 50.0001C73.3716 62.9081 62.908 73.3717 50 73.3717C37.092 73.3717 26.6214 62.9081 26.6214 50.0001C26.6214 37.0922 37.092 26.6215 50 26.6215ZM50 0.00012207C52.9696 0.00012207 55.3789 2.40942 55.3789 5.38603C55.3789 7.45915 54.2023 9.26613 52.4793 10.1626V25.1437C51.6669 25.0667 50.8335 25.0246 50 25.0246C49.1595 25.0246 48.3331 25.0667 47.5207 25.1437V10.1626C45.7907 9.26613 44.6141 7.45915 44.6141 5.38603C44.6141 2.40942 47.0234 0.00012207 50 0.00012207ZM14.6449 14.645C16.746 12.5439 20.1569 12.5439 22.258 14.645C23.7288 16.1158 24.1701 18.224 23.5817 20.073L34.1785 30.6697C32.8968 31.7203 31.7201 32.8969 30.6696 34.1786L20.0728 23.5819C18.2238 24.1702 16.1157 23.7289 14.6449 22.2581C12.5438 20.157 12.5438 16.7462 14.6449 14.645ZM0 50.0001C0 47.0235 2.4093 44.6142 5.38591 44.6142C7.45903 44.6142 9.266 45.7908 10.1625 47.5208H25.1436C25.0665 48.3332 25.0245 49.1597 25.0245 50.0001C25.0245 50.8336 25.0665 51.667 25.1436 52.4795H10.1625C9.266 54.2024 7.45903 55.379 5.38591 55.379C2.4093 55.379 0 52.9697 0 50.0001ZM14.6449 85.3552C12.5438 83.2541 12.5438 79.8432 14.6449 77.7421C16.1157 76.2713 18.2238 75.8301 20.0728 76.4114L30.6696 65.8147C31.7201 67.1034 32.8968 68.273 34.1785 69.3306L23.5817 79.9273C24.1701 81.7763 23.7288 83.8844 22.258 85.3552C20.1569 87.4564 16.746 87.4564 14.6449 85.3552ZM50 100C47.0234 100 44.6141 97.5908 44.6141 94.6142C44.6141 92.5341 45.7907 90.7341 47.5207 89.8376V74.8495C48.3331 74.9336 49.1595 74.9756 50 74.9756C50.8335 74.9756 51.6669 74.9336 52.4793 74.8495V89.8376C54.2023 90.7341 55.3789 92.5341 55.3789 94.6142C55.3789 97.5908 52.9696 100 50 100ZM85.3551 85.3552C83.254 87.4564 79.8431 87.4564 77.742 85.3552C76.2712 83.8844 75.8299 81.7763 76.4113 79.9273L65.8145 69.3306C67.1032 68.273 68.2729 67.1034 69.3304 65.8147L79.9272 76.4114C81.7762 75.8301 83.8843 76.2713 85.3551 77.7421C87.4562 79.8432 87.4562 83.2541 85.3551 85.3552ZM100 50.0001C100 52.9697 97.5907 55.379 94.6141 55.379C92.534 55.379 90.734 54.2024 89.8375 52.4795H74.8494C74.9335 51.667 74.9755 50.8336 74.9755 50.0001C74.9755 49.1597 74.9335 48.3332 74.8494 47.5208H89.8375C90.734 45.7908 92.534 44.6142 94.6141 44.6142C97.5907 44.6142 100 47.0235 100 50.0001ZM85.3551 14.645C87.4562 16.7462 87.4562 20.157 85.3551 22.2581C83.8843 23.7289 81.7762 24.1702 79.9272 23.5819L69.3304 34.1786C68.2729 32.8969 67.1032 31.7203 65.8145 30.6697L76.4113 20.073C75.8299 18.224 76.2712 16.1158 77.742 14.645C79.8431 12.5439 83.254 12.5439 85.3551 14.645ZM52.3323 47.1566C53.0186 47.5838 53.5929 48.1651 54.0272 48.8515H63.2932C64.883 48.8515 66.1717 50.1402 66.1717 51.7231C66.1717 53.3129 64.883 54.6016 63.2932 54.6016H54.0272C53.0677 56.1214 51.3797 57.13 49.4537 57.13C46.4701 57.13 44.0538 54.7067 44.0538 51.7231C44.0538 49.797 45.0623 48.1091 46.5752 47.1566V37.4073C46.5752 35.8175 47.8638 34.5358 49.4537 34.5358C51.0436 34.5358 52.3323 35.8175 52.3323 37.4073V47.1566ZM49.4537 49.727C50.5603 49.727 51.4498 50.6235 51.4498 51.7231C51.4498 52.8297 50.5603 53.7191 49.4537 53.7191C48.3541 53.7191 47.4576 52.8297 47.4576 51.7231C47.4576 50.6235 48.3541 49.727 49.4537 49.727Z" fill="white"/>
</svg>
