<svg width="70" height="83" viewBox="0 0 70 83" fill="none" xmlns="http://www.w3.org/2000/svg">
<path d="M26.2251 11.6677L32.9067 18.365L24.2909 27.001L17.6093 20.3037L26.2251 11.6677Z" fill="#0A8992"/>
<path d="M3.73025 20.5665L1.98957 18.8217L5.47093 15.3322L3.23291 13.089L14.2986 1.99741C15.542 0.751166 17.2827 0.00341797 19.0233 0.00341797C20.764 0.00341797 22.5047 0.751166 23.748 1.99741C25.986 4.24066 26.2347 7.60552 24.7427 10.2226L12.558 22.4359L10.4443 20.3172L6.96293 23.8067L5.22226 22.062L1.3679 25.9253L0.000232697 24.5545L3.73025 20.5665Z" fill="#0A8992"/>
<path d="M32.8242 58.0786C35.1865 58.0786 37.5488 59.0756 39.1652 60.6958L52.4689 74.0306C54.2096 75.7753 56.4476 76.7723 58.9343 76.7723C61.421 76.7723 63.659 75.7753 65.3996 74.0306C67.1403 72.2859 68.135 70.0426 68.135 67.5501C68.135 65.0576 67.1403 62.8144 65.3996 61.0696L63.9076 59.5741C62.0426 61.0696 59.929 61.8174 57.6909 61.8174C55.2043 61.8174 52.5933 60.8204 50.7282 58.951L25.3641 33.5276C24.2451 32.406 24.1208 30.5366 25.1155 29.2904L35.0622 19.3204C35.6838 18.9465 36.3055 18.6973 37.0515 18.6973C37.9219 18.6973 38.7922 19.0711 39.4139 19.6943L64.6536 44.8684C66.5187 46.7378 67.5133 49.2303 67.5133 51.8474C67.5133 54.0907 66.7673 56.3339 65.2753 58.0786L66.7673 59.5741C68.881 61.6928 70 64.5591 70 67.5501C70 70.5411 68.881 73.4075 66.7673 75.5261C64.6536 77.6447 61.794 78.7663 58.8099 78.7663C55.8259 78.7663 52.9663 77.6447 50.8526 75.5261L37.5488 62.1913C36.1812 60.8204 34.4405 60.0726 32.5755 60.0726C30.7105 60.0726 28.9698 60.8204 27.6021 62.1913C26.2345 63.5621 25.4885 65.3069 25.4885 67.1762C25.4885 69.0456 26.2345 70.7904 27.6021 72.1612L37.0515 81.6327L35.6838 83.0036L26.2345 73.5321C24.4938 71.7874 23.6234 69.5441 23.6234 67.1762C23.6234 64.8084 24.6181 62.4405 26.2345 60.8204C28.0995 59.0756 30.3375 58.0786 32.8242 58.0786Z" fill="#0A8992"/>
</svg>
