<svg width="71" height="68" viewBox="0 0 71 68" fill="none" xmlns="http://www.w3.org/2000/svg">
<path d="M40.9879 9.48465C38.8656 9.89515 36.7558 9.0237 35.3542 8.33172C35.0633 8.18833 34.6819 7.96965 34.2404 7.7166C32.8236 6.90435 30.6819 5.67769 29.0222 5.45917C25.4926 4.99524 22.9114 6.45355 21.9421 9.462C21.025 12.3094 21.9196 15.5918 23.8956 16.63C25.9494 17.709 26.9597 18.3409 27.5161 19.2334C28.1143 20.1925 28.0277 21.2172 27.8961 22.7668C27.8764 22.9999 27.8552 23.2495 27.8346 23.5182C27.5525 27.1777 28.0645 31.9206 30.3415 34.3024C30.3835 34.322 30.4265 34.3391 30.4704 34.3536C30.5162 34.3718 30.567 34.3735 30.6138 34.3583C30.6607 34.3431 30.7007 34.3121 30.7269 34.2707C30.7438 34.2322 30.7483 34.1895 30.7398 34.1484C30.7351 34.1231 30.7311 34.0974 30.7286 34.0718C30.6899 33.7085 29.8299 25.1177 33.7195 20.4198C33.9789 20.1104 34.3042 19.8619 34.6719 19.692C35.0396 19.5222 35.4407 19.4353 35.8463 19.4376C36.2519 19.4398 36.6519 19.5311 37.0177 19.705C37.3835 19.8789 37.706 20.131 37.9619 20.4432C41.7746 25.1638 40.924 33.7098 40.8859 34.0712C40.8831 34.0971 40.8794 34.1227 40.8744 34.1484C40.866 34.1895 40.8705 34.2323 40.8873 34.2708C40.9135 34.3123 40.9536 34.3433 41.0005 34.3585C41.0475 34.3736 41.0983 34.3718 41.144 34.3535C41.1879 34.339 41.2309 34.322 41.2727 34.3024C43.5493 31.9208 44.0617 27.1777 43.7798 23.5182C43.7593 23.2508 43.7381 23.0027 43.7184 22.7701C43.5871 21.2195 43.5004 20.195 44.0987 19.2359C44.6545 18.3455 45.6645 17.7121 47.718 16.6304C49.8086 15.5292 50.6544 11.654 49.4582 8.65616C48.764 6.91669 46.8564 4.19939 41.8792 5.54586C40.4388 5.93636 39.6995 6.3906 38.8431 6.91731C38.5898 7.07352 38.3229 7.23737 38.0271 7.40638C39.0196 7.71613 39.8688 7.79158 40.6257 7.64475C40.7474 7.62116 40.8727 7.62159 40.9942 7.64603C41.1158 7.67047 41.2314 7.71843 41.3343 7.78718C41.4372 7.85592 41.5254 7.9441 41.594 8.04669C41.6625 8.14928 41.71 8.26426 41.7338 8.38507C41.7576 8.50588 41.7571 8.63015 41.7325 8.75079C41.7079 8.87143 41.6595 8.98608 41.5903 9.08819C41.521 9.19029 41.4321 9.27786 41.3287 9.34588C41.2254 9.41391 41.1096 9.46106 40.9879 9.48465Z" fill="#0A8992"/>
<path d="M50.1784 39.8233C50.171 39.8276 50.1627 39.8317 50.1559 39.8358L48.0479 40.9734C49.0659 41.1864 50.0265 41.6124 50.8656 42.223L55.228 39.8904C54.4705 39.4287 53.6014 39.1788 52.7125 39.1669C51.8237 39.1551 50.9481 39.3819 50.1784 39.8233Z" fill="#0A8992"/>
<path d="M10.0145 65.1385C10.2381 65.1385 10.4567 65.0727 10.6427 64.9494C10.8286 64.8262 10.9735 64.6509 11.0591 64.4459C11.1447 64.2409 11.1671 64.0153 11.1235 63.7976C11.0798 63.58 10.9722 63.3801 10.814 63.2232C10.6559 63.0662 10.4544 62.9594 10.2351 62.9161C10.0157 62.8728 9.7884 62.895 9.58179 62.9799C9.37518 63.0649 9.19859 63.2087 9.07435 63.3932C8.9501 63.5777 8.88379 63.7946 8.88379 64.0165C8.88408 64.314 9.0033 64.5992 9.21529 64.8096C9.42727 65.0199 9.7147 65.1382 10.0145 65.1385Z" fill="#0A8992"/>
<path d="M53.4783 45.7222L53.9994 45.4497L62.5312 40.8823C61.5307 39.8918 60.0017 39.5087 58.8679 40.0727L52.2939 43.5873C52.8068 44.2278 53.2072 44.9496 53.4783 45.7222Z" fill="#0A8992"/>
<path d="M40.01 58.1649C43.1032 58.7134 46.2921 58.2736 49.1173 56.9088L70.6559 42.2342C70.0154 41.5528 69.165 41.1016 68.2382 40.9513C67.3114 40.8011 66.3606 40.9603 65.5348 41.404L54.8878 47.1036L53.8673 47.6374C53.8775 47.7936 53.8846 47.9521 53.8846 48.1116C53.8846 48.3602 53.7851 48.5986 53.608 48.7743C53.4308 48.9501 53.1906 49.0488 52.9401 49.0488C52.9259 49.0488 52.9118 49.0488 52.8973 49.0479L45.5475 48.7177C43.3933 48.6213 41.2348 48.7202 39.0987 49.0131C38.9751 49.0315 38.8491 49.0254 38.7279 48.9952C38.6067 48.9649 38.4928 48.9111 38.3927 48.8369C38.2926 48.7626 38.2083 48.6694 38.1448 48.5626C38.0813 48.4558 38.0398 48.3375 38.0227 48.2147C38.0055 48.0918 38.0132 47.9668 38.0451 47.8469C38.077 47.727 38.1326 47.6146 38.2086 47.5162C38.2846 47.4177 38.3795 47.3353 38.4879 47.2735C38.5963 47.2118 38.7159 47.172 38.8399 47.1564C41.09 46.848 43.3638 46.7438 45.633 46.845L51.9056 47.1261C51.6721 45.8811 51.0073 44.7563 50.0264 43.9462C49.0455 43.1361 47.81 42.6918 46.5339 42.69H37.9165C36.2298 42.6877 34.5651 42.3093 33.0457 41.5825L32.1571 41.1559C29.9488 40.0895 27.4867 39.6487 25.0421 39.8822C22.5974 40.1156 20.2652 41.0141 18.3023 42.4788L16.1864 44.3481C15.1647 45.2504 13.956 45.9194 12.6455 46.3079L16.8933 60.1337L22.8602 56.3906C22.8744 56.3816 22.889 56.373 22.9038 56.3649C24.1758 55.6564 25.6719 55.4553 27.0879 55.8025L40.01 58.1649Z" fill="#0A8992"/>
<path d="M17.3363 68.0033L9.26584 41.7354H0.65625L3.88449 68.0033H17.3363ZM10.0147 61.0201C10.6119 61.0201 11.1957 61.1958 11.6923 61.5251C12.1889 61.8543 12.5759 62.3223 12.8045 62.8698C13.033 63.4174 13.0928 64.0198 12.9763 64.6011C12.8598 65.1823 12.5722 65.7162 12.1499 66.1353C11.7276 66.5544 11.1895 66.8397 10.6038 66.9554C10.018 67.071 9.41085 67.0116 8.85908 66.7849C8.30731 66.5581 7.8357 66.174 7.50389 65.6812C7.17209 65.1885 6.99499 64.6091 6.99499 64.0165C6.9957 63.222 7.31406 62.4603 7.88021 61.8985C8.44635 61.3367 9.21401 61.0208 10.0147 61.0201Z" fill="#0A8992"/>
<path d="M59.6621 11.5715C59.6621 11.8201 59.7616 12.0584 59.9387 12.2342C60.1159 12.41 60.3561 12.5087 60.6066 12.5087H66.1068C66.3573 12.5087 66.5975 12.41 66.7746 12.2342C66.9518 12.0584 67.0513 11.8201 67.0513 11.5715C67.0513 11.3229 66.9518 11.0845 66.7746 10.9088C66.5975 10.733 66.3573 10.6343 66.1068 10.6343H60.6066C60.3561 10.6343 60.1159 10.733 59.9387 10.9088C59.7616 11.0845 59.6621 11.3229 59.6621 11.5715Z" fill="#0A8992"/>
<path d="M63.4794 0.190994L57.9794 4.27959C57.8801 4.35343 57.7965 4.44595 57.7333 4.55186C57.6701 4.65776 57.6286 4.77498 57.6111 4.89682C57.5935 5.01866 57.6003 5.14273 57.6311 5.26196C57.6619 5.38118 57.716 5.49323 57.7905 5.59169C57.8649 5.69015 57.9581 5.7731 58.0648 5.83581C58.1716 5.89851 58.2897 5.93975 58.4125 5.95715C58.5353 5.97456 58.6603 5.9678 58.7804 5.93725C58.9006 5.9067 59.0135 5.85298 59.1127 5.77913L64.6126 1.69054C64.8068 1.53929 64.9335 1.31864 64.9658 1.0758C64.9981 0.832967 64.9332 0.58725 64.7852 0.391252C64.6372 0.195255 64.4177 0.0645521 64.1737 0.0271237C63.9298 -0.0103046 63.6808 0.048516 63.48 0.190994H63.4794Z" fill="#0A8992"/>
<path d="M57.98 18.8632L63.48 22.9518C63.6808 23.0943 63.9298 23.1531 64.1737 23.1157C64.4177 23.0783 64.6372 22.9476 64.7852 22.7516C64.9332 22.5556 64.9981 22.3099 64.9658 22.067C64.9336 21.8242 64.8068 21.6035 64.6126 21.4523L59.1127 17.3632C58.9123 17.2141 58.6605 17.1501 58.4125 17.1852C58.1645 17.2204 57.9408 17.3518 57.7905 17.5507C57.6402 17.7495 57.5756 17.9995 57.6111 18.2455C57.6465 18.4916 57.779 18.7136 57.9794 18.8628L57.98 18.8632Z" fill="#0A8992"/>
<path d="M4.53906 11.5715C4.53906 11.8201 4.63857 12.0584 4.8157 12.2342C4.99282 12.41 5.23305 12.5087 5.48354 12.5087H10.9836C11.2341 12.5087 11.4743 12.41 11.6514 12.2342C11.8286 12.0584 11.9281 11.8201 11.9281 11.5715C11.9281 11.3229 11.8286 11.0845 11.6514 10.9088C11.4743 10.733 11.2341 10.6343 10.9836 10.6343H5.48354C5.23305 10.6343 4.99282 10.733 4.8157 10.9088C4.63857 11.0845 4.53906 11.3229 4.53906 11.5715Z" fill="#0A8992"/>
<path d="M7.54422 23.1391C7.74829 23.1391 7.94684 23.0733 8.10996 22.9516L13.6098 18.863C13.8102 18.7139 13.9427 18.4919 13.9781 18.2458C14.0136 17.9997 13.949 17.7498 13.7987 17.5509C13.6484 17.3521 13.4247 17.2206 13.1767 17.1854C12.9287 17.1503 12.6769 17.2143 12.4765 17.3635L6.97643 21.4521C6.81784 21.5701 6.7007 21.7346 6.64159 21.9224C6.58249 22.1101 6.58441 22.3116 6.6471 22.4982C6.70979 22.6848 6.83005 22.8471 6.99087 22.9621C7.15168 23.0772 7.34488 23.1391 7.54312 23.1391H7.54422Z" fill="#0A8992"/>
<path d="M12.4771 5.77962C12.6775 5.92876 12.9294 5.9928 13.1774 5.95765C13.4253 5.9225 13.6491 5.79103 13.7994 5.59218C13.9497 5.39333 14.0142 5.14338 13.9788 4.89731C13.9433 4.65125 13.8109 4.42922 13.6105 4.28008L8.10981 0.190865C7.90942 0.041726 7.65752 -0.0223111 7.40955 0.0128413C7.16157 0.0479936 6.93783 0.179456 6.78753 0.378308C6.63724 0.577159 6.5727 0.827111 6.60813 1.07318C6.64355 1.31924 6.77604 1.54127 6.97643 1.69041L12.4771 5.77962Z" fill="#0A8992"/>
</svg>
