<svg width="100" height="98" viewBox="0 0 100 98" fill="none" xmlns="http://www.w3.org/2000/svg">
<path d="M99.7508 20.9611C99.7088 20.3521 99.2255 19.867 98.6174 19.8261C86.9707 19.0295 77.2441 20.1311 69.6787 23.0975C66.41 15.6114 60.3654 8.00142 51.5494 0.300858C51.0898 -0.100123 50.4053 -0.100123 49.9457 0.300858C40.9263 8.17927 34.8042 15.9661 31.5914 23.6224C23.8409 20.2626 13.6892 18.9842 1.38379 19.8261C0.775672 19.8681 0.291334 20.3521 0.250434 20.9611C-0.69564 34.8413 1.04152 45.975 5.41563 54.0539C9.60785 61.7965 16.2896 66.9187 25.2886 69.2998L14.9076 87.2825C14.0971 88.687 14.0573 90.1659 14.7946 91.4464C15.7342 93.0762 17.8825 94.1714 20.1417 94.1714H20.146C20.9188 94.1714 21.6464 94.0453 22.3072 93.8049C22.3395 93.9407 22.3772 94.0755 22.4224 94.2102C23.1769 96.477 25.5609 98.0001 28.3528 98.0001H71.615C74.407 98.0001 76.791 96.477 77.5455 94.2102C77.5907 94.0755 77.6283 93.9407 77.6606 93.8049C78.3516 94.0582 79.1147 94.1887 79.9284 94.18C82.1843 94.1595 84.3144 93.0558 85.2281 91.4324C85.9482 90.1551 85.8912 88.6859 85.0689 87.2933L74.4812 69.3602C93.1121 64.5548 101.612 48.2839 99.7486 20.9611H99.7508ZM32.4837 28.3523C34.8354 20.1225 40.9779 11.5467 50.7465 2.84903C60.8218 11.8194 67.0353 20.6571 69.2202 29.1284C71.2921 37.162 69.7756 45.131 64.7137 52.8423C63.1821 50.6294 59.6465 49.5364 56.5607 48.9974V44.6621C59.71 42.3435 61.7862 38.4059 61.7862 33.9477C61.7862 26.8324 56.4983 21.0441 49.9984 21.0441C43.4986 21.0441 38.2107 26.8324 38.2107 33.9477C38.2107 38.3984 40.2805 42.3306 43.4211 44.6513V48.9306C41.0737 49.31 37.9599 50.0796 35.9957 51.6027C31.4149 44.0434 30.231 36.2285 32.4815 28.3512L32.4837 28.3523ZM49.9995 44.4088C44.8451 44.4088 40.6518 39.7156 40.6518 33.9477C40.6518 28.1798 44.8451 23.4866 49.9995 23.4866C55.154 23.4866 59.3473 28.1798 59.3473 33.9477C59.3473 39.7156 55.154 44.4088 49.9995 44.4088ZM82.9701 88.5361C83.3457 89.1721 83.3887 89.7261 83.1046 90.2317C82.6203 91.0907 81.2749 91.7246 79.9058 91.7364C79.1761 91.745 77.8619 91.5758 77.0859 90.4127C77.0644 90.3783 77.0428 90.3438 77.0202 90.3103C77.0116 90.2963 77.0041 90.2834 76.9955 90.2694L62.3006 65.2749C62.0219 64.8006 61.46 64.571 60.9294 64.7165C60.3988 64.861 60.0307 65.3439 60.0307 65.8947V79.5873C60.0307 79.9721 60.2115 80.3332 60.5183 80.5639L74.253 90.8903C74.5232 91.094 74.7449 91.3128 74.916 91.5445C74.972 91.6383 75.0312 91.731 75.0926 91.8205C75.3681 92.3239 75.4187 92.8747 75.2314 93.4363C74.8794 94.4915 73.6255 95.5565 71.615 95.5565H53.1897C53.6805 94.775 53.9324 93.8814 53.9356 92.99C53.9431 90.5626 52.0273 88.0996 48.3539 88.0866L36.7233 88.0467H36.719C36.0473 88.0467 35.5017 88.5911 35.4995 89.2637C35.4974 89.9385 36.042 90.4871 36.7147 90.4893L48.3452 90.5292C50.6754 90.5367 51.4988 91.8561 51.4956 92.9825C51.4924 94.2231 50.4817 95.5554 48.272 95.5554H48.2559H48.2537H28.3539C26.3434 95.5554 25.0884 94.4905 24.7375 93.4352C24.5535 92.8844 24.5997 92.3433 24.8624 91.8464C24.9345 91.7429 25.0023 91.6351 25.0669 91.5251C25.2358 91.2999 25.4522 91.0875 25.7159 90.8892L39.4506 80.5628C39.7574 80.3322 39.9382 79.97 39.9382 79.5863V65.3363C39.9382 64.7834 39.5669 64.2994 39.0341 64.156C38.5003 64.0127 37.9373 64.2476 37.6618 64.7262L22.982 90.2564C22.982 90.2564 22.9777 90.2629 22.9767 90.2661C22.9325 90.3319 22.8895 90.3998 22.8486 90.4666C22.093 91.5542 20.8467 91.7246 20.146 91.7246H20.1438C18.7715 91.7246 17.4111 91.0929 16.9084 90.2219C16.6125 89.7089 16.6491 89.1462 17.0204 88.5027L36.7362 54.3503C37.5326 52.9447 40.6227 51.7353 44.7999 51.1964C45.408 51.1177 45.8633 50.5992 45.8633 49.9848V46.0267C47.1516 46.557 48.5454 46.8492 50.0006 46.8492C51.4558 46.8492 52.8388 46.5592 54.1229 46.0332V50.0387C54.1229 50.6466 54.5695 51.1629 55.1712 51.2481C59.1255 51.8097 61.9756 52.9738 62.7957 54.3622L63.5987 55.7225C63.5987 55.7225 63.6019 55.7279 63.604 55.7311L82.9711 88.534L82.9701 88.5361ZM71.5321 85.7907L62.4696 78.9772V70.3766L71.5321 85.7907ZM28.3098 85.8845L37.4971 69.9056V78.9772L28.3098 85.8845Z" fill="white"/>
</svg>
