<svg width="100" height="100" viewBox="0 0 100 100" fill="none" xmlns="http://www.w3.org/2000/svg">
<path fill-rule="evenodd" clip-rule="evenodd" d="M20.4888 50.0008H18.7505C18.7505 48.8485 17.8247 47.9188 16.6684 47.9188H2.08205C0.925824 47.9188 0 48.8524 0 50.0008V83.3332C0 84.4855 0.925804 85.4152 2.08205 85.4152H16.6644C17.3832 85.4152 18.0083 85.0519 18.3833 84.505L45.946 98.9462C48.4969 100.372 51.6141 100.349 54.1532 98.8915L95.8223 74.9342C99.8107 72.6412 101.186 67.5436 98.8849 63.5551C96.9668 60.2192 93.0917 58.7113 89.5291 59.6528C93.5214 53.5863 95.834 46.3326 95.834 38.5436C95.834 17.2703 78.5635 0.00012207 57.294 0.00012207C36.0204 0.00012207 18.75 17.2703 18.75 38.5436C18.75 42.5319 19.356 46.3797 20.4888 50.0008ZM36.4582 54.1689H18.7508V79.9931L47.9075 95.2703C47.9193 95.2781 47.9388 95.2898 47.9583 95.2977C49.2396 96.0203 50.8022 96.0125 52.0717 95.2781L93.7408 71.3209C95.7409 70.1725 96.4284 67.6255 95.2838 65.6294C94.1393 63.6372 91.5845 62.9497 89.5962 64.0942L70.6157 75.0043C70.5532 76.391 70.1352 77.7816 69.3462 79.0396C66.8969 82.9341 61.7522 84.1021 57.8579 81.6529L33.5452 66.3477C32.5765 65.7344 32.2835 64.4493 32.9007 63.4766C33.5062 62.5039 34.7953 62.211 35.7641 62.8242L60.0767 78.1294C62.026 79.356 64.5963 78.77 65.8269 76.8247C66.3464 75.9887 66.5456 75.0395 66.4401 74.1294C66.4284 74.102 66.4284 74.0747 66.4284 74.0473C66.2605 72.8676 65.6042 71.7621 64.5104 71.0785L38.6777 54.8083C38.0136 54.3864 37.2402 54.1677 36.4589 54.1677L36.4582 54.1689ZM78.1073 65.896C86.3458 59.6107 91.6697 49.6928 91.6697 38.5437C91.6697 19.5705 76.2633 4.16832 57.2938 4.16832C38.3243 4.16832 22.9179 19.5705 22.9179 38.5437C22.9179 42.5593 23.6054 46.4188 24.8749 50.0008H31.6056C30.0431 46.5008 29.1681 42.6218 29.1681 38.5437C29.1681 23.0205 41.7704 10.4184 57.2938 10.4184C72.8142 10.4184 85.4195 23.0205 85.4195 38.5437C85.4195 51.7388 76.3138 62.825 64.044 65.853L66.7432 67.5522C68.0363 68.3647 69.0245 69.478 69.6808 70.7437L78.1073 65.896ZM59.3768 22.1065V20.8331C59.3768 19.6847 58.4393 18.7511 57.2948 18.7511C56.1503 18.7511 55.2127 19.6847 55.2127 20.8331V22.1065C51.0368 23.0557 47.9195 26.7902 47.9195 31.2511C47.9195 35.7082 51.0329 39.4465 55.2127 40.3957V50.6108C53.8182 50.0014 52.7439 48.8022 52.3065 47.3256C51.9744 46.224 50.8181 45.5951 49.7126 45.9233C48.6071 46.2514 47.982 47.4116 48.3064 48.5131C49.2634 51.7319 51.9119 54.228 55.2127 54.978L55.2088 56.2514C55.2088 57.3998 56.1463 58.3334 57.2909 58.3334C58.4354 58.3334 59.3729 57.3998 59.3729 56.2514L59.3768 54.978C63.5527 54.0288 66.67 50.2943 66.67 45.8334C66.67 41.3763 63.5527 37.6419 59.3768 36.6927V26.4776C60.7714 27.0869 61.8457 28.2862 62.2831 29.7628C62.6152 30.8644 63.7714 31.4933 64.877 31.1651C65.9825 30.837 66.6075 29.6768 66.2832 28.5753C65.3262 25.3564 62.6776 22.8605 59.3768 22.1065ZM59.3768 41.0597V50.6067C61.2089 49.802 62.5019 47.9661 62.5019 45.8333C62.5019 43.7005 61.2089 41.8643 59.3768 41.0597ZM55.2087 26.4776C53.3767 27.2823 52.0836 29.1182 52.0836 31.251C52.0836 33.3838 53.3767 35.2199 55.2087 36.0245V26.4776Z" fill="white"/>
</svg>
