<svg width="70" height="65" viewBox="0 0 70 65" fill="none" xmlns="http://www.w3.org/2000/svg">
<path d="M13.0113 64.9608C16.6819 65.2429 20.3528 64.1165 23.1769 61.5844L41.1551 45.8246C41.3431 45.7308 41.4371 45.5426 41.6258 45.4489C40.1194 45.8246 38.5195 45.9184 37.0132 45.8246H36.9193C35.2249 45.6363 33.5305 45.2614 31.9307 44.6046L18.6585 56.2374C17.1526 57.5503 15.3643 58.1135 13.5758 58.0197H13.4819C11.6934 57.8315 9.99899 57.0809 8.68132 55.5806C7.45755 54.0794 6.89305 52.2971 6.98691 50.4211C7.08108 48.6386 7.92811 46.8564 9.33995 45.6363L24.3061 32.5032L27.3181 29.8766L27.4123 29.7828L27.6008 29.5954H27.6948L27.8829 29.4079L28.0713 29.3142L28.1655 29.2205C28.2594 29.1268 28.3535 29.1268 28.4479 29.0322L28.6361 28.9386L28.73 28.8448H28.8245L29.0126 28.751L29.2951 28.6574L29.4832 28.5636H29.5773C29.7657 28.47 29.8596 28.3761 30.0478 28.3761H30.1422L30.4243 28.2823L30.6128 28.1888C30.8008 28.1888 31.0834 28.1888 31.2714 28.0941H32.4952C34.2837 28.2823 35.9781 29.0322 37.2958 30.5334C38.425 31.8471 38.9901 33.3475 38.9901 34.9423C39.9313 34.7549 40.7784 34.3801 41.4371 33.7231L45.2025 30.4396C44.6377 28.8448 43.7906 27.2499 42.5669 25.9369C40.8725 23.9672 38.8017 22.6534 36.4487 21.8092C36.3546 21.8092 36.1661 21.7154 35.9781 21.7154L35.8839 21.6218H35.7894L35.3188 21.528C35.2249 21.4344 35.0369 21.4344 34.9423 21.4344L34.8482 21.3406H34.3776L34.2837 21.2468H33.907L33.719 21.1524H32.6833L32.5893 21.0586H31.3656L31.2714 21.1524H30.7069C30.4243 21.1524 30.1422 21.2468 29.7657 21.2468L29.5773 21.3406C29.2951 21.3406 29.0126 21.4344 28.8245 21.4344H28.73L28.542 21.528H28.3535L28.2594 21.6218H28.0713L27.8829 21.7154L27.6008 21.8092H27.5066L27.2243 21.9028L27.1301 21.9966H26.9417L26.6596 22.0912L26.565 22.1848L26.2831 22.2786C25.0593 22.841 23.8355 23.5914 22.8002 24.5295L4.82194 40.2893C1.90399 42.8223 0.303974 46.2932 0.0215872 49.9515C-0.166626 53.61 0.868703 57.2691 3.41019 60.1769C5.95185 63.0848 9.43408 64.7734 13.0113 64.9608Z" fill="#0A8992"/>
<path d="M33.0598 19.2765C34.8481 19.3701 36.5425 19.7458 38.1427 20.4027L51.4145 8.76979C52.9204 7.45698 54.7087 6.89375 56.4976 7.08115C58.2859 7.17572 60.0743 8.01917 61.2975 9.42664C62.6154 10.9278 63.1805 12.8039 63.0864 14.5863C62.898 16.3686 62.1449 18.1509 60.6389 19.4647L45.7668 32.5034L42.6607 35.2244H42.5668L42.3781 35.4118V35.5057H42.2842L42.1901 35.5993L42.0021 35.7868H41.9075C41.7195 35.8805 41.6256 35.9742 41.531 35.9742L41.343 36.0679L41.2489 36.1624L41.0605 36.2563L40.7783 36.4437H40.5898L40.4957 36.5372C40.3077 36.5372 40.1192 36.6311 40.0251 36.6311L39.9311 36.7249H39.6486L39.3665 36.8185C39.178 36.8185 38.9899 36.9123 38.8015 36.9123H37.5777C35.7893 36.8185 34.001 35.9742 32.7776 34.4739C31.648 33.2538 31.0832 31.659 30.9889 30.0649C30.142 30.2523 29.2949 30.6272 28.6359 31.2842L24.8711 34.5677C25.4356 36.1624 26.2829 37.7565 27.5064 39.164C29.2005 41.04 31.2713 42.4475 33.5304 43.1981H33.6243L33.9068 43.2918L34.001 43.3855H34.1895L34.3775 43.4792H34.4716L34.6601 43.5731H34.9422L35.1306 43.6666H35.2248L35.6013 43.7605H36.0718V43.8541H36.5425C36.7309 43.8541 36.9192 43.8541 37.1072 43.9479H38.8015L39.2722 43.8541H39.9311L40.2134 43.7605H40.4018L40.5898 43.6666H40.7783L41.155 43.5731H41.4369L41.6256 43.4792L42.0021 43.3855L42.2842 43.2918H42.3781L42.4726 43.1981H42.5668C42.6607 43.1981 42.8487 43.1044 42.9433 43.1044C43.1313 43.0099 43.3199 42.916 43.508 42.8225H43.6019L43.7905 42.7286H43.8845C45.0137 42.1656 46.2375 41.4158 47.2732 40.4778L65.251 24.718C68.169 22.185 69.7694 18.714 69.9574 15.055C70.24 11.4903 69.1102 7.73814 66.5687 4.83027C64.1218 1.92245 60.6389 0.327579 57.0621 0.0455637H56.9682C53.3911 -0.2356 49.7201 0.889996 46.8022 3.42289L28.8244 19.1827C28.7298 19.3701 28.5418 19.4647 28.4477 19.5584C29.9536 19.2765 31.4599 19.0889 33.0598 19.2765Z" fill="#0A8992"/>
</svg>
