<svg width="70" height="70" viewBox="0 0 70 70" fill="none" xmlns="http://www.w3.org/2000/svg">
<path d="M25.0891 6.10498H4.37209C1.95062 6.10498 0 8.0556 0 10.4771V31.2613C0 33.6828 1.95062 35.6334 4.37209 35.6334H25.1563C27.5778 35.6334 29.5284 33.6828 29.5284 31.2613V10.4771C29.4611 8.0556 27.5105 6.10498 25.0891 6.10498Z" fill="#0A8992"/>
<path d="M25.0891 40.5435H4.37209C1.95062 40.5435 0 42.4941 0 44.9155V65.6325C0 68.054 1.95062 70.0046 4.37209 70.0046H25.1563C27.5778 70.0046 29.5284 68.054 29.5284 65.6325V44.9155C29.4611 42.4941 27.5105 40.5435 25.0891 40.5435Z" fill="#0A8992"/>
<path d="M59.528 40.5435H38.8111C36.3896 40.5435 34.439 42.4941 34.439 44.9155V65.6325C34.439 68.054 36.3896 70.0046 38.8111 70.0046H59.528C61.9495 70.0046 63.9001 68.054 63.9001 65.6325V44.9155C63.9001 42.4941 61.9495 40.5435 59.528 40.5435Z" fill="#0A8992"/>
<path d="M59.5839 31.2514C65.3365 25.4988 65.3365 16.1721 59.5839 10.4195C53.8313 4.66687 44.5045 4.66687 38.7519 10.4195C32.9993 16.1721 32.9993 25.4988 38.7519 31.2514C44.5045 37.004 53.8313 37.004 59.5839 31.2514Z" fill="#0A8992"/>
</svg>
