<svg width="58" height="70" viewBox="0 0 58 70" fill="none" xmlns="http://www.w3.org/2000/svg">
<path fill-rule="evenodd" clip-rule="evenodd" d="M54.9233 5.15239C49.8261 -1.45151 33.2842 -1.10144 29.0011 2.79675C24.7183 -1.10144 8.17644 -1.45151 3.07893 5.15239C-3.94868 14.2542 2.42816 31.9911 8.52508 37.1469C8.94317 37.497 1.77742 50.6615 14.1311 68.1174C15.8762 70.5679 18.832 70.7064 18.832 68.0481V57.5245C18.832 36.4036 39.1699 36.4036 39.1699 57.5245V68.0481C39.1699 70.7101 42.1256 70.5678 43.8707 68.1174C56.224 50.6615 49.0587 37.497 49.4767 37.1469C55.5736 31.9907 61.9468 14.2542 54.9233 5.15239Z" fill="#0A8992"/>
</svg>
