<svg width="20" height="20" viewBox="0 0 20 20" fill="none" xmlns="http://www.w3.org/2000/svg">
<path d="M19.0752 6.3253H17.4637L16.1132 2.0467C15.9235 1.44167 15.3783 1.04651 14.7387 1.04651H12.9855C12.7486 0.441489 12.1562 0 11.4694 0H8.50739C7.79651 0 7.20411 0.441489 6.99123 1.04651H5.23719C4.59758 1.04651 4.05239 1.44167 3.86263 2.0467L2.51215 6.3253H0.900636C0.402642 6.3253 0 6.72047 0 7.20921C0 7.69795 0.402642 8.09312 0.900636 8.09312H19.0994C19.5974 8.09312 20 7.69795 20 7.20921C19.9759 6.72047 19.5732 6.3253 19.0752 6.3253ZM3.64963 6.3253L4.9057 2.37181C4.95291 2.23192 5.07139 2.13926 5.21394 2.13926H6.96706C7.20402 2.74428 7.79642 3.18577 8.48322 3.18577H11.4452C12.1561 3.18577 12.7485 2.74428 12.9614 2.13926H14.7154C14.858 2.13926 14.9996 2.23192 15.0237 2.37181L16.2797 6.3253H3.64963Z" fill="#0A8992"/>
<path d="M3.98114 19.7211C4.00521 19.8837 4.1709 20 4.31251 20H15.6394C15.8051 20 15.9476 19.8837 15.9708 19.7211L18.2219 9.23227H1.72998L3.98114 19.7211ZM12.4404 16.7206L13.578 12.2783C13.6492 11.9758 13.9806 11.7896 14.2888 11.8595C14.5971 11.9295 14.7868 12.2547 14.7156 12.5572L13.578 16.9995C13.5067 17.2557 13.2697 17.441 13.0096 17.441C12.9624 17.441 12.9152 17.441 12.8671 17.4174C12.5357 17.3493 12.346 17.0468 12.4404 16.7206ZM9.38406 11.6744C9.38406 11.3492 9.64509 11.093 9.97646 11.093C10.3078 11.093 10.5689 11.3492 10.5689 11.6744V17.6046C10.5689 17.9298 10.3078 18.186 9.97646 18.186C9.64509 18.186 9.38406 17.9298 9.38406 17.6046V11.6744ZM5.66403 11.8606C5.97227 11.7906 6.30363 11.9769 6.37491 12.2794L7.5125 16.7217C7.58378 17.0242 7.39402 17.3494 7.08579 17.4194C7.03858 17.4421 6.99045 17.4421 6.94324 17.4421C6.68221 17.4421 6.44525 17.2559 6.37492 17.0006L5.2614 12.5583C5.16606 12.2558 5.3558 11.9305 5.66403 11.8606Z" fill="#0A8992"/>
</svg>
