<svg width="20" height="21" viewBox="0 0 20 21" fill="none" xmlns="http://www.w3.org/2000/svg">
<path d="M15.3611 14.102C17.0848 11.7736 17.5092 8.72852 16.4879 6.01733C15.4667 3.3059 13.1383 1.29951 10.3081 0.690541C7.47691 0.0815486 4.53037 0.953343 2.48597 3.00531C0.441529 5.05728 -0.420877 8.00813 0.195418 10.84C0.811713 13.6718 2.82322 15.9962 5.5351 17.0103C8.24724 18.0256 11.2885 17.5922 13.6093 15.8593L17.953 20.2017C18.4453 20.6235 19.1787 20.5945 19.637 20.1367C20.0944 19.678 20.1234 18.944 19.702 18.4513L15.3611 14.102ZM4.2213 13.2903C2.88902 11.9559 2.25147 10.0777 2.49758 8.20781C2.74369 6.33716 3.84537 4.68855 5.4781 3.74494C7.10978 2.80234 9.08742 2.67241 10.8285 3.39485C12.5696 4.11732 13.8767 5.60878 14.3641 7.42998C14.8515 9.25211 14.4649 11.1985 13.3176 12.6947C12.1695 14.191 10.3924 15.0677 8.50779 15.0677C6.89839 15.0715 5.35587 14.4317 4.2213 13.2903Z" fill="#1E1E1E"/>
</svg>
