<svg width="20" height="21" viewBox="0 0 20 21" fill="none" xmlns="http://www.w3.org/2000/svg">
<path d="M14.4567 16.4468C15.0966 17.5089 14.7646 18.8945 13.7147 19.5421L11.8719 20.6764V20.6755C11.5251 20.8894 11.1272 21.0029 10.721 21.0029C10.3528 21.002 9.99019 20.9119 9.66374 20.7393C6.7627 19.2015 4.32652 16.8992 2.61068 14.077C0.901445 11.2312 -0.000943358 7.96634 6.3244e-06 4.63638C-0.00184841 3.85296 0.404357 3.12582 1.0684 2.72238L2.91211 1.58804C3.96196 0.941602 5.33096 1.27748 5.9708 2.33863L7.1273 4.262C7.76722 5.32409 7.43521 6.70903 6.38536 7.35634L5.43013 7.94367V7.94461C5.14541 8.11724 5.01001 8.4625 5.09997 8.7862C5.73433 10.8597 6.86578 12.7418 8.39418 14.2654C8.63623 14.4999 9.00442 14.5384 9.28821 14.3573L10.2425 13.77C11.2924 13.1235 12.6614 13.4594 13.3012 14.5206L14.4567 16.4468ZM10.0672 7.42943C11.6874 7.68275 12.7976 9.21582 12.548 10.854C12.5174 11.0511 12.5657 11.2518 12.6825 11.4123C12.7984 11.5736 12.9737 11.6806 13.1676 11.7106C13.2056 11.7163 13.2436 11.7191 13.2826 11.7191C13.648 11.7191 13.9587 11.4489 14.0143 11.083C14.1942 9.90359 13.9039 8.69891 13.2075 7.73523C12.511 6.77073 11.4639 6.12616 10.2981 5.94131C10.1033 5.91129 9.90488 5.96008 9.74629 6.07736C9.5877 6.19558 9.48104 6.37197 9.45136 6.569C9.3883 6.979 9.6656 7.36181 10.0709 7.4256L10.0672 7.42943ZM10.7433 2.97467C10.5458 2.9362 10.3408 2.98218 10.1758 3.09946C10.0116 3.21767 9.90218 3.39782 9.87158 3.59953C9.84097 3.80124 9.89291 4.00672 10.0163 4.1681C10.1387 4.33041 10.3204 4.43456 10.5208 4.458C12.077 4.701 13.4738 5.55854 14.4038 6.84393C15.334 8.12838 15.7217 9.73459 15.4815 11.3081C15.4481 11.507 15.4944 11.7115 15.6113 11.8748C15.7272 12.038 15.9044 12.1468 16.101 12.1778C16.2985 12.2078 16.4989 12.1562 16.6584 12.0352C16.8179 11.9142 16.9218 11.7331 16.9477 11.5332C17.2473 9.56671 16.7613 7.55886 15.5974 5.95441C14.4344 4.34909 12.6881 3.27755 10.7433 2.97467ZM11.1959 0.00787399C10.799 -0.0381003 10.4382 0.241495 10.3779 0.64024C10.3186 1.03994 10.581 1.41523 10.9733 1.49029C13.3058 1.85806 15.3991 3.14532 16.7939 5.07244C18.1888 6.99863 18.7712 9.40615 18.4132 11.7657C18.3798 11.9647 18.4262 12.1692 18.5431 12.3324C18.6599 12.4957 18.8361 12.6045 19.0337 12.6355C19.2303 12.6655 19.4315 12.6139 19.5901 12.4929C19.7496 12.3719 19.8544 12.1908 19.8804 11.9909C20.2968 9.23815 19.6161 6.43012 17.9885 4.18388C16.3617 1.93681 13.9198 0.434795 11.1987 0.00774182L11.1959 0.00787399Z" fill="white"/>
</svg>
