<svg width="20" height="22" viewBox="0 0 20 22" fill="none" xmlns="http://www.w3.org/2000/svg">
<path d="M14.4567 16.6237C15.0966 17.6858 14.7646 19.0715 13.7147 19.719L11.8719 20.8533V20.8524C11.5251 21.0663 11.1272 21.1799 10.721 21.1799C10.3528 21.1789 9.99019 21.0888 9.66374 20.9162C6.7627 19.3784 4.32652 17.0761 2.61068 14.2539C0.901445 11.4081 -0.000943358 8.14327 6.3244e-06 4.81331C-0.00184841 4.02989 0.404357 3.30274 1.0684 2.8993L2.91211 1.76497C3.96196 1.11853 5.33096 1.45441 5.9708 2.51555L7.1273 4.43893C7.76722 5.50101 7.43521 6.88596 6.38536 7.53326L5.43013 8.12059V8.12153C5.14541 8.29417 5.01001 8.63943 5.09997 8.96313C5.73433 11.0366 6.86578 12.9188 8.39418 14.4423C8.63623 14.6768 9.00442 14.7153 9.28821 14.5342L10.2425 13.9469C11.2924 13.3005 12.6614 13.6363 13.3012 14.6975L14.4567 16.6237ZM10.0672 7.60635C11.6874 7.85968 12.7976 9.39275 12.548 11.0309C12.5174 11.228 12.5657 11.4287 12.6825 11.5892C12.7984 11.7506 12.9737 11.8575 13.1676 11.8876C13.2056 11.8932 13.2436 11.896 13.2826 11.896C13.648 11.896 13.9587 11.6258 14.0143 11.2599C14.1942 10.0805 13.9039 8.87583 13.2075 7.91215C12.511 6.94765 11.4639 6.30309 10.2981 6.11824C10.1033 6.08821 9.90488 6.137 9.74629 6.25428C9.5877 6.3725 9.48104 6.5489 9.45136 6.74592C9.3883 7.15592 9.6656 7.53873 10.0709 7.60253L10.0672 7.60635ZM10.7433 3.1516C10.5458 3.11313 10.3408 3.1591 10.1758 3.27638C10.0116 3.3946 9.90218 3.57474 9.87158 3.77645C9.84097 3.97817 9.89291 4.18364 10.0163 4.34502C10.1387 4.50734 10.3204 4.61149 10.5208 4.63493C12.077 4.87793 13.4738 5.73547 14.4038 7.02086C15.334 8.30531 15.7217 9.91151 15.4815 11.485C15.4481 11.6839 15.4944 11.8884 15.6113 12.0517C15.7272 12.2149 15.9044 12.3238 16.101 12.3547C16.2985 12.3847 16.4989 12.3331 16.6584 12.2121C16.8179 12.0911 16.9218 11.91 16.9477 11.7102C17.2473 9.74364 16.7613 7.73579 15.5974 6.13133C14.4344 4.52602 12.6881 3.45447 10.7433 3.1516ZM11.1959 0.1848C10.799 0.138825 10.4382 0.41842 10.3779 0.817165C10.3186 1.21686 10.581 1.59215 10.9733 1.66721C13.3058 2.03499 15.3991 3.32225 16.7939 5.24937C18.1888 7.17555 18.7712 9.58307 18.4132 11.9427C18.3798 12.1416 18.4262 12.3461 18.5431 12.5094C18.6599 12.6726 18.8361 12.7815 19.0337 12.8124C19.2303 12.8424 19.4315 12.7908 19.5901 12.6698C19.7496 12.5488 19.8544 12.3677 19.8804 12.1679C20.2968 9.41508 19.6161 6.60704 17.9885 4.36081C16.3617 2.11373 13.9198 0.611721 11.1987 0.184667L11.1959 0.1848Z" fill="#0A8992"/>
</svg>
